<svg xmlns="http://www.w3.org/2000/svg" viewBox="0 0 128 128">
  <defs>
    <linearGradient id="bg" x1="0" y1="0" x2="1" y2="1">
      <stop offset="0" stop-color="#10b981"/>
      <stop offset="1" stop-color="#0f766e"/>
    </linearGradient>
  </defs>
  <rect width="128" height="128" rx="28" fill="url(#bg)"/>
  <circle cx="64" cy="70" r="34" fill="#ecfdf5"/>
  <circle cx="64" cy="70" r="26" fill="#d1fae5"/>
  <path d="M64 28c12 4 20 14 20 26-12 0-24-6-30-16 2-4 6-8 10-10z" fill="#a7f3d0"/>
  <path d="M64 28c-2 10 2 20 10 26-10-2-20-10-24-20 4-4 8-6 14-6z" fill="#6ee7b7"/>
  <path d="M46 86c12 6 24 6 36 0" stroke="#059669" stroke-width="6" stroke-linecap="round" fill="none"/>
</svg>
